<svg width="512" height="512" viewBox="0 0 512 512" fill="none" xmlns="http://www.w3.org/2000/svg">
<path fill-rule="evenodd" clip-rule="evenodd" d="M381.259 46.3346L380.619 68.9848H512L501.555 87.1762L500.53 88.955L447.83 180.713L446.895 182.345L443.395 188.441H414.782L387.326 238.755C390.073 249.699 391.572 261.43 391.572 273.895C391.571 329.575 354.261 376.284 302.811 393.654L255.865 479.711L206.4 389.044C191.092 381.793 177.477 371.679 166.037 359.956C146.405 339.84 132.545 314.395 127.292 289.174C126.197 284.32 125.522 279.734 125.3 275.536L125.29 275.318L125.286 275.1C125.285 275.065 125.286 275.03 125.286 274.995L125.276 273.994L125.281 273.99C125.281 273.958 125.276 273.926 125.276 273.895V261.751H136.945L125.964 241.625L125.817 241.596L125.841 241.397L96.9478 188.441H68.335L64.8343 182.34L52.7573 161.322L52.7431 161.293L11.4508 88.9265L11.4556 88.9218L10.4452 87.1762L0 68.9848H148.159L151.313 44.6032L151.332 44.4467L151.356 44.2901L153.23 32.2891H381.259V46.3346Z" fill="white"/>
<path fill-rule="evenodd" clip-rule="evenodd" d="M103.236 174.693L92.0834 155.274H63.2908L74.4439 174.693H103.236Z" fill="#404470"/>
<path fill-rule="evenodd" clip-rule="evenodd" d="M448.44 155.274L437.302 174.667H408.509L419.647 155.274H448.44Z" fill="#404470"/>
<path fill-rule="evenodd" clip-rule="evenodd" d="M92.0834 155.274H63.2908L21.9992 82.908H143.816L255.865 305.307L367.914 82.908H490.002L448.44 155.274H419.647L408.509 174.667L407.574 176.295L255.865 454.359L104.157 176.295L103.236 174.693L92.0834 155.274Z" fill="#7A7FAE"/>
<path fill-rule="evenodd" clip-rule="evenodd" d="M143.816 82.908H21.9992L20.977 81.1282H142.92L143.816 82.908Z" fill="#D2D5FF"/>
<path fill-rule="evenodd" clip-rule="evenodd" d="M490.002 82.908H367.914L368.811 81.1282H491.024L490.002 82.908Z" fill="#D2D5FF"/>
<path fill-rule="evenodd" clip-rule="evenodd" d="M74.4439 174.693H103.236L104.157 176.295H75.364L74.4439 174.693Z" fill="#131638"/>
<path fill-rule="evenodd" clip-rule="evenodd" d="M436.367 176.295H407.574L408.509 174.667H437.302L436.367 176.295Z" fill="#131638"/>
<path fill-rule="evenodd" clip-rule="evenodd" d="M369.118 44.4324V46.1619H163.875H163.358L163.628 44.4324H369.118Z" fill="#D8DBFA"/>
<path fill-rule="evenodd" clip-rule="evenodd" d="M137.422 273.893C137.422 274.227 137.425 274.561 137.43 274.894L137.422 273.893Z" fill="#A5ABF3"/>
<path fill-rule="evenodd" clip-rule="evenodd" d="M379.432 273.893C376.353 178.468 296.287 153.518 258.274 152.913C246.049 152.913 232.244 155.112 226.008 156.73L226.098 156.225C228.262 154.756 243.598 151.676 258.274 151.676C318.93 151.676 379.432 197.828 379.432 273.893Z" fill="#D8DBFA"/>
<path fill-rule="evenodd" clip-rule="evenodd" d="M207.493 274.894H206.862H137.43L137.422 273.893H207.244C207.318 274.228 207.401 274.561 207.493 274.894Z" fill="#D8DBFA"/>
<path fill-rule="evenodd" clip-rule="evenodd" d="M369.118 46.1619H163.875L139.984 230.923L211.125 245.664C215.985 237.17 227.647 219.613 254.775 219.613C293.575 221.511 303.46 256.757 300.143 267.764C302.147 282.346 288.325 316.196 251.562 314.891C223.087 313.881 207.642 288.145 206.862 274.894H137.43C139.306 310.263 180.015 386.791 258.427 386.568C336.839 386.344 379.432 322.662 379.432 273.893C376.353 178.468 296.287 153.518 258.274 152.913C246.049 152.913 232.244 155.112 226.008 156.73L225.505 156.849L230.668 109.944L230.869 108.368H367.356L369.118 46.1619Z" fill="#A5ABF3"/>
<path fill-rule="evenodd" clip-rule="evenodd" d="M206.862 274.894H207.493C208.155 286.925 219.76 311.74 251.562 314.423C280.021 314.891 300.143 291.215 300.143 267.764C302.147 282.346 288.325 316.196 251.562 314.891C223.087 313.881 207.642 288.145 206.862 274.894Z" fill="#D8DBFA"/>
<path fill-rule="evenodd" clip-rule="evenodd" d="M254.775 219.613C293.575 221.511 303.46 256.757 300.143 267.764C300.143 245.382 283.541 223.05 254.775 220.99C241.556 220.043 222.169 226.409 211.434 246.893L210.535 246.707C210.72 246.378 210.916 246.029 211.125 245.664C215.985 237.17 227.647 219.613 254.775 219.613Z" fill="#6169BD"/>
<path fill-rule="evenodd" clip-rule="evenodd" d="M137.43 274.894C139.306 310.263 180.015 386.791 258.427 386.568C336.839 386.344 379.432 322.662 379.432 273.893C379.432 337.34 325.256 388.775 258.427 388.775C192.08 388.775 141.915 327.271 137.43 274.894Z" fill="#6169BD"/>
<path fill-rule="evenodd" clip-rule="evenodd" d="M139.458 230.814L139.984 230.923L211.125 245.664C210.916 246.029 210.72 246.378 210.535 246.707L139.306 231.986L139.458 230.814Z" fill="#6169BD"/>
<path fill-rule="evenodd" clip-rule="evenodd" d="M139.458 230.814L163.358 46.1619H163.875L139.984 230.923L139.458 230.814Z" fill="#D8DBFA"/>
<path fill-rule="evenodd" clip-rule="evenodd" d="M226.098 156.225L226.008 156.73L225.505 156.849L230.668 109.944H231.189L226.098 156.225Z" fill="#6169BD"/>
<path fill-rule="evenodd" clip-rule="evenodd" d="M367.312 109.944H231.189H230.668L230.869 108.368H367.356L367.312 109.944Z" fill="#6169BD"/>
<path d="M301.133 267.424C301.133 293.558 279.947 314.745 253.812 314.745C227.678 314.745 206.492 293.558 206.492 267.424C206.492 241.289 227.678 220.103 253.812 220.103C279.947 220.103 301.133 241.289 301.133 267.424Z" fill="white"/>
</svg>
